HIERARCHY
ROOT Hips
{
	OFFSET 0.000000 0.000000 0.000000
	CHANNELS 6 Xposition Yposition Zposition Yrotation Xrotation Zrotation
	JOINT Chest
	{
		OFFSET 0.000000 -0.009281 11.569106
		CHANNELS 3 Yrotation Xrotation Zrotation
		JOINT Chest2
		{
			OFFSET -0.000000 0.016865 9.269641
			CHANNELS 3 Yrotation Xrotation Zrotation
			JOINT Chest3
			{
				OFFSET -0.000000 0.000001 8.374491
				CHANNELS 3 Yrotation Xrotation Zrotation
				JOINT Chest4
				{
					OFFSET -0.000000 0.000001 8.374493
					CHANNELS 3 Yrotation Xrotation Zrotation
					JOINT Neck
					{
						OFFSET -0.000000 0.000002 12.152554
						CHANNELS 3 Yrotation Xrotation Zrotation
						JOINT Head
						{
							OFFSET -0.000000 0.040101 7.802319
							CHANNELS 3 Yrotation Xrotation Zrotation
							End Site
							{
								OFFSET -0.000000 0.020947 14.853096
							}
						}
					}
					JOINT RightCollar
					{
						OFFSET 2.894404 0.000001 6.791374
						CHANNELS 3 Yrotation Xrotation Zrotation
						JOINT RightShoulder
						{
							OFFSET 13.574684 0.000001 0.000000
							CHANNELS 3 Yrotation Xrotation Zrotation
							JOINT RightElbow
							{
								OFFSET 23.923903 0.000002 0.000000
								CHANNELS 3 Yrotation Xrotation Zrotation
								JOINT RightWrist
								{
									OFFSET 19.846718 0.012767 0.000000
									CHANNELS 3 Yrotation Xrotation Zrotation
									End Site
									{
										OFFSET 14.973145 0.000001 0.000000
									}
								}
							}
						}
					}
					JOINT LeftCollar
					{
						OFFSET -2.894404 0.000001 6.791374
						CHANNELS 3 Yrotation Xrotation Zrotation
						JOINT LeftShoulder
						{
							OFFSET -13.574684 -0.000001 0.000000
							CHANNELS 3 Yrotation Xrotation Zrotation
							JOINT LeftElbow
							{
								OFFSET -23.923903 -0.000002 0.000000
								CHANNELS 3 Yrotation Xrotation Zrotation
								JOINT LeftWrist
								{
									OFFSET -19.846718 0.012763 0.000000
									CHANNELS 3 Yrotation Xrotation Zrotation
									End Site
									{
										OFFSET -14.973145 -0.000001 0.000000
									}
								}
							}
						}
					}
				}
			}
		}
	}
	JOINT RightHip
	{
		OFFSET 9.469263 0.004643 0.045487
		CHANNELS 3 Yrotation Xrotation Zrotation
		JOINT RightKnee
		{
			OFFSET 0.000000 0.002661 -40.478676
			CHANNELS 3 Yrotation Xrotation Zrotation
			JOINT RightAnkle
			{
				OFFSET 0.000000 0.049106 -35.224068
				CHANNELS 3 Yrotation Xrotation Zrotation
				JOINT RightToe
				{
					OFFSET -0.000001 12.539529 -6.151390
					CHANNELS 3 Yrotation Xrotation Zrotation
					End Site
					{
						OFFSET -0.000001 5.044994 -1.291870
					}
				}
			}
		}
	}
	JOINT LeftHip
	{
		OFFSET -9.469263 0.004641 0.045487
		CHANNELS 3 Yrotation Xrotation Zrotation
		JOINT LeftKnee
		{
			OFFSET 0.000000 0.002661 -40.478676
			CHANNELS 3 Yrotation Xrotation Zrotation
			JOINT LeftAnkle
			{
				OFFSET 0.000000 0.049106 -35.224068
				CHANNELS 3 Yrotation Xrotation Zrotation
				JOINT LeftToe
				{
					OFFSET -0.000001 12.539529 -6.151390
					CHANNELS 3 Yrotation Xrotation Zrotation
					End Site
					{
						OFFSET -0.000001 5.044994 -1.291870
					}
				}
			}
		}
	}
}
MOTION
Frames: 5
Frame Time: 0.016667
10.627435 7.591129 83.135307 -7.832915 -3.957756 -111.776333 0.061791 -3.378735 0.673553 0.029070 -1.498170 0.284841 0.029070 -1.498170 0.284840 0.022500 -1.123615 0.213690 0.318466 -23.855281 1.172198 0.871828 -8.129978 2.187146 9.238505 -1.999028 -1.274968 65.553219 21.336109 13.720150 -4.808267 -11.612330 6.543268 -48.983473 15.190629 34.970128 -10.525951 -3.991445 -1.417171 -75.929956 7.770706 -14.022279 6.619887 23.387481 4.043790 54.139426 16.300007 -28.171988 -0.358878 -10.161453 -0.583626 -0.091853 -3.153207 0.089093 0.842508 4.331711 0.506535 0.039682 -0.023556 -0.006540 0.249002 -11.003719 -1.356617 -0.536202 -1.656656 1.595581 0.438868 3.949594 0.317297 -0.002090 -0.031069 0.006064 
10.606781 7.599476 83.135017 -7.874176 -3.958606 -111.745194 0.072430 -3.401823 0.669627 0.033832 -1.508367 0.282709 0.033831 -1.508367 0.282710 0.026071 -1.131261 0.212105 0.221917 -23.872956 1.355806 0.744989 -8.163897 2.492088 9.261571 -2.054972 -1.280355 66.096649 20.994972 13.780354 -4.670424 -11.121211 6.170040 -49.486080 16.510714 35.641764 -10.527608 -4.120708 -1.442830 -76.159635 7.417480 -14.350900 6.932903 23.935257 4.462042 54.031625 17.209601 -28.287042 -0.373102 -10.165209 -0.590300 -0.081498 -3.199221 0.074863 0.832261 4.344054 0.501881 0.034904 -0.021472 -0.007392 0.240009 -11.012395 -1.377936 -0.535899 -1.677951 1.596377 0.436357 3.943177 0.312815 0.000104 -0.031514 0.006344 
10.586974 7.608911 83.133705 -7.904540 -3.957057 -111.725072 0.084667 -3.415605 0.670667 0.039290 -1.514278 0.282837 0.039290 -1.514278 0.282838 0.030166 -1.135691 0.212214 0.131718 -23.876733 1.532009 0.627873 -8.171978 2.785519 9.282374 -2.058492 -1.289538 66.586763 20.572723 13.776892 -4.530791 -10.737642 5.815528 -49.827975 17.549034 36.075823 -10.526099 -4.250627 -1.482658 -76.268911 6.997244 -14.651488 7.167455 24.445708 4.831724 53.806451 17.988970 -28.106174 -0.388502 -10.156812 -0.584231 -0.071057 -3.245386 0.060607 0.824852 4.356072 0.496406 0.029578 -0.020532 -0.008024 0.231884 -11.014259 -1.381040 -0.539219 -1.694522 1.596583 0.435770 3.938524 0.300755 0.002273 -0.033952 0.006357 
10.567813 7.618777 83.132248 -7.929401 -3.955472 -111.710708 0.092935 -3.420837 0.676691 0.043043 -1.516415 0.285135 0.043043 -1.516415 0.285135 0.032988 -1.137292 0.213948 0.049819 -23.869600 1.700194 0.523847 -8.159789 3.066771 9.292997 -2.040509 -1.318688 67.140637 20.029965 13.788743 -4.493855 -10.364694 5.441140 -50.239190 18.396795 36.364050 -10.518782 -4.362408 -1.509776 -76.280932 6.551276 -14.943020 7.420385 24.787441 5.178535 53.653998 18.372973 -27.649190 -0.401078 -10.143744 -0.569579 -0.065749 -3.289918 0.042972 0.823408 4.365435 0.491554 0.023400 -0.018783 -0.008319 0.224868 -11.011003 -1.373562 -0.543695 -1.713755 1.599687 0.434704 3.937530 0.280137 0.004812 -0.036976 0.006232 
10.549902 7.626758 83.131302 -7.954982 -3.955239 -111.698667 0.096056 -3.424940 0.683021 0.044496 -1.518081 0.287836 0.044497 -1.518081 0.287838 0.034086 -1.138541 0.215974 -0.027001 -23.854021 1.864313 0.428118 -8.131934 3.342111 9.301046 -2.035907 -1.336722 67.782790 19.375379 13.855579 -4.592392 -9.882286 5.049379 -50.674557 19.151526 36.598493 -10.521853 -4.440054 -1.551384 -76.228046 6.195102 -15.214970 7.675657 24.948953 5.459221 53.525201 18.428552 -26.856632 -0.409957 -10.136244 -0.568780 -0.064597 -3.327184 0.028250 0.824548 4.370862 0.493717 0.017330 -0.016725 -0.008718 0.221425 -11.010612 -1.358691 -0.551589 -1.732400 1.585804 0.434146 3.935930 0.270649 0.007595 -0.038189 0.006593 
